<?xml version="1.0" standalone="no"?>
<!DOCTYPE svg PUBLIC "-//W3C//DTD SVG 20010904//EN"
 "http://www.w3.org/TR/2001/REC-SVG-20010904/DTD/svg10.dtd">
<svg version="1.0" xmlns="http://www.w3.org/2000/svg"
 width="425.000000pt" height="425.000000pt" viewBox="0 0 425.000000 425.000000"
 preserveAspectRatio="xMidYMid meet">
<metadata>
Created by potrace 1.11, written by Peter Selinger 2001-2013
</metadata>
<g transform="translate(0.000000,425.000000) scale(0.100000,-0.100000)"
fill="#000000" stroke="none">
<path d="M2199 3963 c-185 -135 -570 -561 -701 -774 -60 -97 -72 -136 -59
-187 27 -98 97 -152 199 -152 123 0 204 65 368 296 53 75 118 162 145 195 51
60 141 129 170 129 22 0 142 -127 226 -240 75 -101 218 -245 293 -297 222
-151 345 -103 337 132 -4 134 -27 167 -318 440 -51 48 -120 128 -172 201 -155
219 -259 304 -371 304 -48 0 -60 -5 -117 -47z"/>
<path d="M3555 3829 c-175 -62 -273 -192 -291 -387 -25 -278 196 -499 478
-479 176 12 306 123 354 302 18 64 18 226 0 290 -30 115 -106 212 -203 260
-52 26 -70 29 -168 32 -92 3 -120 0 -170 -18z"/>
<path d="M2992 2587 c-141 -152 -182 -207 -226 -297 -29 -61 -31 -72 -31 -180
0 -104 3 -121 26 -172 15 -31 35 -59 45 -62 36 -10 259 -45 399 -62 195 -23
513 -23 620 0 135 29 213 76 251 148 22 42 18 126 -8 178 -61 120 -197 146
-633 120 -88 -5 -191 -7 -228 -3 l-68 6 3 196 c2 183 -4 262 -20 261 -4 -1
-62 -60 -130 -133z"/>
<path d="M1954 2300 c-48 -11 -91 -46 -121 -98 -24 -40 -28 -58 -28 -122 0
-62 5 -84 28 -127 44 -86 120 -167 311 -333 99 -87 198 -180 218 -207 34 -45
58 -92 58 -113 0 -21 -174 -62 -397 -94 -131 -19 -267 -44 -303 -55 -158 -49
-230 -129 -230 -254 0 -209 173 -253 582 -146 84 21 252 64 373 95 338 84 467
132 550 205 34 30 35 34 30 78 -15 112 -56 212 -124 306 -19 28 -103 120 -186
205 -82 85 -200 216 -260 290 -146 178 -216 253 -290 305 -86 62 -147 81 -211
65z"/>
<path d="M1509 1832 c-137 -155 -285 -315 -564 -612 -698 -739 -716 -761 -744
-867 -30 -112 85 -256 204 -256 79 0 143 52 298 238 102 123 367 410 892 965
163 173 299 320 302 327 12 31 -146 223 -240 290 l-45 33 -103 -118z"/>
</g>
</svg>
